<?xml version="1.0" standalone="no"?>
<!DOCTYPE svg PUBLIC "-//W3C//DTD SVG 20010904//EN"
 "http://www.w3.org/TR/2001/REC-SVG-20010904/DTD/svg10.dtd">
<svg version="1.0" xmlns="http://www.w3.org/2000/svg"
 width="300.000000pt" height="300.000000pt" viewBox="0 0 300.000000 300.000000"
 preserveAspectRatio="xMidYMid meet">
<metadata>
Created by potrace 1.11, written by Peter Selinger 2001-2013
</metadata>
<g transform="translate(0.000000,300.000000) scale(0.100000,-0.100000)"
fill="#000000" stroke="none">
<path d="M1362 2921 c-235 -68 -392 -252 -392 -462 0 -30 -6 -51 -16 -60 -68
-56 -54 -198 24 -239 21 -12 43 -38 62 -74 l30 -56 -59 -73 c-95 -116 -132
-207 -151 -362 -9 -74 -9 -113 1 -168 17 -103 71 -268 145 -442 125 -295 478
-985 495 -968 18 18 171 307 290 546 188 381 293 638 336 822 43 189 -31 441
-176 598 l-40 43 31 60 c20 39 41 64 62 74 82 40 94 184 20 245 -6 6 -14 46
-17 92 -6 102 -43 187 -108 251 -42 43 -143 102 -173 102 -9 0 -31 14 -50 30
-18 17 -50 37 -70 45 -48 20 -165 18 -244 -4z m393 -372 c75 -28 153 -101 198
-186 l36 -68 7 34 c7 31 8 33 21 16 38 -52 -9 -169 -60 -150 -8 4 -23 -18 -40
-59 -16 -35 -37 -72 -47 -81 -17 -15 -21 -15 -71 11 -96 48 -160 65 -265 71
-126 7 -226 -13 -330 -67 l-74 -38 -19 24 c-11 14 -32 52 -47 85 -17 36 -33
58 -40 55 -22 -8 -63 33 -70 70 -4 20 -1 47 6 64 14 33 30 40 30 12 0 -10 7
-27 15 -38 13 -17 14 -17 15 -2 0 31 68 94 132 124 62 28 66 29 238 29 198 0
208 3 258 75 15 22 32 39 39 40 7 0 37 -9 68 -21z m-115 -566 c109 -29 226
-119 292 -223 96 -150 95 -391 -1 -543 -39 -60 -108 -129 -168 -168 -153 -96
-398 -96 -543 1 -61 40 -134 113 -169 169 -94 148 -98 383 -8 531 29 49 114
137 163 171 117 80 281 104 434 62z"/>
<path d="M1246 2339 c-15 -12 -26 -30 -26 -44 0 -24 41 -65 65 -65 19 0 52 32
60 57 4 17 -1 30 -19 48 -31 30 -45 31 -80 4z"/>
<path d="M1662 2344 c-31 -22 -30 -78 2 -99 64 -42 130 41 76 95 -24 24 -48
25 -78 4z"/>
<path d="M1391 1885 c-57 -16 -131 -54 -131 -66 0 -12 84 -22 119 -14 20 4 31
3 31 -4 0 -6 -8 -11 -17 -11 -39 -1 -66 -50 -27 -50 8 0 14 -7 14 -17 0 -14 2
-14 20 2 11 10 20 24 20 32 0 21 28 15 58 -12 24 -23 25 -25 7 -26 -11 -1 -25
-1 -32 0 -14 2 -114 -101 -125 -127 -4 -9 -7 -11 -7 -4 -1 7 -15 12 -35 12
-39 0 -67 -29 -59 -61 4 -15 2 -18 -11 -13 -16 6 -46 58 -46 81 0 7 -7 13 -15
13 -7 0 -18 8 -24 18 -19 33 -35 -35 -36 -148 0 -98 2 -109 32 -171 39 -79
120 -160 196 -194 147 -68 344 -36 449 72 37 37 37 39 22 68 -8 16 -17 52 -19
80 -9 115 -21 131 -87 118 -60 -12 -104 79 -55 115 9 7 17 20 17 27 0 8 10 17
23 19 62 13 77 13 77 0 0 -8 8 -14 18 -15 9 0 38 -2 65 -4 41 -4 47 -2 47 15
0 11 -7 20 -15 20 -7 0 -19 8 -24 18 -9 15 -12 15 -21 2 -8 -13 -10 -13 -10 1
0 9 -7 20 -16 23 -23 9 -36 7 -30 -3 4 -5 -4 -7 -15 -4 -15 4 -27 -1 -39 -17
-11 -15 -23 -21 -34 -17 -23 9 -20 25 7 29 12 2 22 8 22 14 0 16 31 44 49 44
24 0 19 18 -6 26 -21 6 -21 7 -2 21 18 14 18 16 -16 44 -77 65 -231 94 -339
64z m-53 -63 c2 -7 -3 -12 -12 -12 -9 0 -16 7 -16 16 0 17 22 14 28 -4z m157
-8 c13 -14 14 -19 3 -25 -20 -13 -29 -11 -26 9 2 12 -3 16 -19 15 -13 -2 -23
2 -23 7 0 16 47 11 65 -6z m-209 -288 c8 -8 14 -23 13 -33 0 -11 -2 -13 -6 -5
-3 7 -17 18 -31 23 -21 8 -23 12 -12 19 19 12 19 12 36 -4z m99 -37 c4 -6 13
-8 20 -5 8 3 19 -2 25 -10 7 -8 18 -14 25 -14 7 0 15 -9 18 -19 3 -13 20 -24
47 -31 33 -9 40 -15 34 -28 -4 -9 -9 -30 -12 -45 -3 -18 -13 -32 -29 -38 -13
-5 -23 -15 -21 -21 4 -19 -30 -65 -52 -71 -19 -5 -19 -7 -5 -46 8 -23 10 -41
5 -41 -15 0 -49 51 -43 66 3 8 1 20 -4 27 -5 6 -10 34 -11 62 -3 41 -9 55 -38
84 -34 34 -43 64 -24 76 6 3 10 14 10 24 0 32 40 55 55 30z"/>
</g>
</svg>
