<?xml version="1.0" standalone="no"?>
<!DOCTYPE svg PUBLIC "-//W3C//DTD SVG 20010904//EN"
 "http://www.w3.org/TR/2001/REC-SVG-20010904/DTD/svg10.dtd">
<svg version="1.0" xmlns="http://www.w3.org/2000/svg"
 width="300.000000pt" height="300.000000pt" viewBox="0 0 300.000000 300.000000"
 preserveAspectRatio="xMidYMid meet">
<metadata>
Created by potrace 1.11, written by Peter Selinger 2001-2013
</metadata>
<g transform="translate(0.000000,300.000000) scale(0.100000,-0.100000)"
fill="#000000" stroke="none">
<path d="M1415 2930 c-183 -39 -323 -138 -392 -277 -30 -62 -37 -87 -41 -156
-4 -69 -8 -86 -28 -106 -31 -31 -48 -90 -40 -135 8 -43 47 -92 81 -100 14 -4
25 -12 25 -19 0 -7 14 -35 30 -61 l30 -47 -56 -62 c-147 -164 -199 -399 -138
-633 39 -151 142 -401 290 -704 158 -323 313 -612 325 -605 25 16 389 737 477
945 114 271 156 418 156 540 -1 160 -71 343 -173 453 l-58 62 33 60 c18 33 46
67 61 76 80 45 97 164 35 233 -11 11 -21 52 -29 111 -19 154 -81 248 -205 310
-39 19 -78 35 -88 35 -9 0 -27 12 -41 26 -13 14 -37 33 -52 41 -35 17 -147 25
-202 13z m361 -386 c76 -36 137 -95 175 -169 l34 -65 11 33 11 32 13 -24 c32
-61 3 -152 -52 -159 -17 -2 -28 -12 -36 -35 -6 -18 -25 -54 -42 -80 l-30 -47
-67 34 c-194 97 -389 99 -582 4 l-83 -41 -19 24 c-10 13 -31 50 -46 82 -21 45
-31 57 -49 57 -55 0 -86 110 -46 161 l19 22 6 -31 c4 -18 10 -32 14 -32 5 1
20 18 34 38 33 48 124 97 209 112 50 9 89 9 172 0 102 -12 108 -12 152 9 30
15 54 37 73 67 32 51 40 51 129 8z m-180 -545 c180 -33 349 -190 396 -368 88
-337 -158 -661 -501 -661 -220 0 -416 138 -493 346 -32 88 -31 265 2 349 97
250 333 382 596 334z"/>
<path d="M1242 2338 c-20 -20 -15 -76 7 -88 62 -33 124 36 75 84 -18 19 -65
21 -82 4z"/>
<path d="M1657 2332 c-22 -25 -21 -55 2 -76 27 -25 72 -17 90 15 13 24 13 29
-2 53 -21 31 -66 35 -90 8z"/>
<path d="M1363 1871 c-29 -11 -62 -26 -74 -35 l-22 -15 28 -11 c15 -6 30 -9
32 -6 3 2 -5 7 -16 11 -26 8 -18 25 11 25 11 0 22 -8 25 -20 6 -24 16 -25 38
-3 14 14 18 14 26 2 6 -9 11 -11 17 -3 15 21 41 23 64 4 20 -17 21 -21 8 -30
-23 -15 -43 -12 -36 5 7 20 -18 20 -38 0 -8 -8 -21 -13 -28 -10 -7 3 -22 -1
-33 -9 -20 -14 -20 -15 1 -34 17 -16 23 -17 37 -7 9 7 17 17 17 23 0 25 21 24
69 -6 2 -1 5 -10 6 -20 0 -9 4 -23 9 -30 4 -6 3 -12 -3 -12 -5 0 -12 4 -15 9
-3 5 -15 11 -26 14 -11 3 -18 1 -14 -4 3 -5 1 -9 -4 -9 -13 0 -112 -95 -112
-108 0 -9 -4 -9 -18 -1 -25 16 -69 4 -77 -21 -9 -29 2 -42 25 -30 22 12 31 13
28 3 -1 -5 4 -20 10 -35 12 -28 35 -37 47 -17 15 23 119 -14 134 -48 6 -13 19
-23 31 -23 11 0 29 -5 39 -11 17 -11 17 -14 1 -58 -10 -25 -25 -47 -34 -49 -9
-2 -16 -13 -16 -25 0 -22 -43 -77 -60 -77 -11 0 -2 -50 12 -67 8 -10 6 -13
-10 -13 -32 0 -53 45 -59 126 -4 53 -11 78 -22 87 -40 29 -70 107 -41 107 6 0
10 6 10 13 -1 16 -82 67 -108 67 -11 0 -25 7 -32 15 -7 8 -10 15 -6 15 4 0 0
14 -9 30 -9 17 -18 30 -21 30 -2 0 0 -9 6 -19 13 -24 13 -31 0 -31 -5 0 -13
15 -18 33 -11 44 -25 40 -39 -13 -16 -63 -15 -116 3 -185 77 -296 427 -401
662 -198 l32 28 -14 55 c-8 30 -15 66 -14 80 0 38 -25 100 -42 101 -8 1 -30 1
-48 0 -47 -4 -72 22 -70 71 1 24 8 44 18 51 9 7 19 19 22 28 4 10 24 19 53 23
38 6 49 4 59 -10 9 -11 21 -15 36 -11 12 3 33 1 46 -5 13 -6 26 -9 29 -6 9 9
-6 38 -20 38 -7 0 -16 6 -18 13 -4 9 -7 9 -15 -1 -6 -9 -11 -6 -20 13 -11 25
-32 34 -32 15 0 -5 5 -10 10 -10 6 0 10 -7 10 -15 0 -8 -5 -15 -11 -15 -5 0
-8 4 -4 9 3 6 -3 15 -14 20 -14 8 -25 6 -44 -9 -32 -26 -57 -26 -57 0 0 13 7
20 19 20 20 0 21 12 6 61 -4 10 -2 19 3 19 10 0 26 -29 24 -43 -2 -6 17 2 47
21 3 1 -4 9 -15 16 -19 14 -19 15 0 29 17 13 15 16 -30 45 -26 18 -70 39 -98
47 -69 21 -189 19 -253 -4z m317 -141 c0 -5 -4 -10 -10 -10 -5 0 -10 5 -10 10
0 6 5 10 10 10 6 0 10 -4 10 -10z"/>
</g>
</svg>
