<svg xmlns="http://www.w3.org/2000/svg" xmlns:xlink="http://www.w3.org/1999/xlink" version="1.1" x="0px" y="0px" viewBox="0 0 48 30" xml:space="preserve"><g transform="translate(-90 -80)"><g xmlns="http://www.w3.org/2000/svg" xmlns:xlink="http://www.w3.org/1999/xlink"><rect x="90" y="108" width="3" height="1"></rect><rect x="94" y="107" width="3" height="1"></rect><rect x="98" y="106" width="2" height="1"></rect><g><path d="M134,103l-5-4l-1,1l-2-1l-1-1l-4-14l-2-1l-1,1l-4-1l-1-1h-3l-3,1l-1,1h-3v1l1,2l2,1v1h-4v3h4v1h-3l-2,2v2l1,2h1v2h5l-1,2     l-3,2h-2l-1,1v1h1l1-1h3l6-5v-1l3-3v1l-1,2h2l1.5-1.5h1.5l2,1.5l3-1l9,5v1h4v-2H134z M121.181,98.886l-1.847-1.386h-2.248     l-1.436,1.436l0.35-0.7v-3.65l-5,5v0.946l-2.825,2.354l1.443-2.886H104v-2h-1.382L102,96.764v-1.35L103.414,94H107v-3h-4v-1h4     v-2.618l-2.255-1.127L104.118,85h2.296l1.126-1.126L110.162,83h2.424l0.903,0.903l4.818,1.205l0.891-0.891l0.962,0.481     l3.79,13.265L121.181,98.886z"></path></g><rect x="96" y="91" width="3" height="2"></rect><rect x="98" y="97" width="2" height="1"></rect><rect x="93" y="95" width="1" height="1"></rect><rect x="94" y="101" width="1" height="2"></rect></g></g></svg>