<svg xmlns="http://www.w3.org/2000/svg" xmlns:xlink="http://www.w3.org/1999/xlink" version="1.1" x="0px" y="0px" viewBox="0 0 30 30" xml:space="preserve"><g transform="translate(-296 -80)"><g xmlns="http://www.w3.org/2000/svg" xmlns:xlink="http://www.w3.org/1999/xlink"><g><path d="M309,90v-9h-9v2l-1,3l1,1v3l2,2v1l2,3v1l3,4v3h3l5,3v2l7-1v-5L309,90z M321,107.133l-5,0.714v-1.414L310.277,103H308     v-2.333l-3-4v-0.969l-2-3v-1.111l-2-2v-3l-0.856-0.856L301,83.162V82h7v8.414l13,13V107.133z"></path></g><rect x="307" y="105" width="3" height="1"></rect><rect x="311" y="106" width="1" height="1"></rect><rect x="310" y="107" width="1" height="1"></rect></g></g></svg>