<svg xmlns="http://www.w3.org/2000/svg" xmlns:xlink="http://www.w3.org/1999/xlink" version="1.1" x="0px" y="0px" viewBox="0 0 30 30" xml:space="preserve"><g transform="translate(-492 -80)"><g xmlns="http://www.w3.org/2000/svg" xmlns:xlink="http://www.w3.org/1999/xlink"><path d="M512,107v-1l2-1v-2l-3-1l-1-2v-1l-2-2v-5l-3-3v-3l3-4v-1h-4l-2,2l1,27h11v-2h-3v-1H512z M510,106v3h-6.036l-0.948-25.601    L504.414,82h2.336L504,85.667v3.748l3,3v5l2,2v0.822l1.291,2.582l2.709,0.903v0.661l-2,1V106H510z"></path></g></g></svg>