<svg xmlns="http://www.w3.org/2000/svg" xmlns:xlink="http://www.w3.org/1999/xlink" version="1.1" x="0px" y="0px" viewBox="0 0 38 30" xml:space="preserve"><g transform="translate(-552 -80)"><g xmlns="http://www.w3.org/2000/svg" xmlns:xlink="http://www.w3.org/1999/xlink"><path d="M586,95l1-2l-3-4l-2-6l-3-1v2l-1-1h-12l-1-2h-12v1l1,2h6l4,2v1h2l2-1h3l4,4h1v3l-1,3l1,1v1l2,3h1v2h1l1,2l2,1l2,3h2l1-1    v-1l1-3v-4L586,95z M588,103.838l-1,3v0.748L586.586,108h-1.051l-1.851-2.776l-1.939-0.969L580.618,102H580v-2h-1.465L577,97.697    v-1.111l-0.855-0.856L577,93.162V89h-1.586l-4-4h-3.65l-2,1H565v-0.618L560.236,83h-5.618l-0.5-1h10.264l1,2h12.204L580,86.414    v-3.027l1.209,0.403l1.894,5.68l2.727,3.635l-0.969,1.938l3.14,5.233V103.838z"></path></g></g></svg>