<svg xmlns="http://www.w3.org/2000/svg" xmlns:xlink="http://www.w3.org/1999/xlink" version="1.1" x="0px" y="0px" viewBox="0 0 30 30" xml:space="preserve"><g transform="translate(-30 -140)"><g xmlns="http://www.w3.org/2000/svg" xmlns:xlink="http://www.w3.org/1999/xlink"><path d="M55,159v-2l-2-4h-1l-2-4h-2l-2-4l-2-1l1-2H32l3,16v6l2,4h13l1,1h1v-2h2v-2l1-2v-1l2-2v-1H55z M54,161.586v1.178l-1,2V166    h-2v1.586L50.414,167H37.618L36,163.764v-5.857L33.205,143h10.177l-0.724,1.447l2.597,1.298L47.382,150h2l2,4h1L54,157.236V160    h1.586L54,161.586z"></path></g></g></svg>