<svg xmlns="http://www.w3.org/2000/svg" xmlns:xlink="http://www.w3.org/1999/xlink" version="1.1" x="0px" y="0px" viewBox="0 0 30 30" xml:space="preserve"><g transform="translate(-228 -140)"><g xmlns="http://www.w3.org/2000/svg" xmlns:xlink="http://www.w3.org/1999/xlink"><path d="M250,143v-2h-12l2,2v1l-1,2h-3v2h1v1l-2,2v4l3,3v2h2l-1,3l3,3l1,3h1v-1l2,1h1v-1l1-1l1-4l1-2v-3l1-1v-12L250,143z     M250,156.586l-1,1v3.178l-0.943,1.887l-0.959,3.838L246,167.586v0.296l-2.782-1.391l-0.344-1.031l-2.73-2.73l1.243-3.73H239    v-1.414l-3-3v-3.172l2-2V147h1.618l1.382-2.764v-1.65L240.414,142H249v1.236l1,2V156.586z"></path></g></g></svg>