<svg xmlns="http://www.w3.org/2000/svg" xmlns:xlink="http://www.w3.org/1999/xlink" version="1.1" x="0px" y="0px" viewBox="0 0 48 30" xml:space="preserve"><g transform="translate(-348 -140)"><g xmlns="http://www.w3.org/2000/svg" xmlns:xlink="http://www.w3.org/1999/xlink"><path d="M390,149l-2-1v-4l-2-3h-35v6l-1,1l2,2v3l2,3v2l1,1l1,8h28v2h2v-2l2-1l1-3l-1-1l1-2l3-1l2-5L390,149z M391.244,158.198    l-2.953,0.984l-1.508,3.015l1.072,1.073l-0.673,2.021L385,166.382V166h-28.117l-0.933-7.464l-0.95-0.95v-1.889l-2-3v-3.111    L351.414,148l0.586-0.586V142h33.465l1.535,2.303v4.315l2.356,1.178l3.499,4.373L391.244,158.198z"></path></g></g></svg>