<svg xmlns="http://www.w3.org/2000/svg" xmlns:xlink="http://www.w3.org/1999/xlink" version="1.1" x="0px" y="0px" viewBox="0 0 48 30" xml:space="preserve"><g transform="translate(-504 -140)"><g xmlns="http://www.w3.org/2000/svg" xmlns:xlink="http://www.w3.org/1999/xlink"><path d="M549,154l-1-4l-3-3l-1,1h-3l-1-1h-2l-2-3h-3l1,2l-3,2l-3,3v2h-3v-2l-5,4l-3-2h-1l-3,3v1h-1v3h-2v-1h-2l-1,1v4h-2v1h9v-1    h27l5-2l1-2l2-1l2-3L549,154z M548.315,158.224l-2.061,1.031l-0.979,1.958L540.808,163H513v1h-5v-3.586l0.414-0.414H509v1h4v-3h1    v-1.586l2.414-2.414h0.283l3.356,2.238l3.946-3.157V154h5v-2.586l2.637-2.637l3.652-2.435L534.618,145h0.847l2,3h2.121l1,1h3.828    l0.586-0.586l2.097,2.097l1,4l1.616,1.616L548.315,158.224z"></path></g></g></svg>