<svg xmlns="http://www.w3.org/2000/svg" xmlns:xlink="http://www.w3.org/1999/xlink" version="1.1" x="0px" y="0px" viewBox="0 0 30 30" xml:space="preserve"><g transform="translate(-30 -200)"><g xmlns="http://www.w3.org/2000/svg" xmlns:xlink="http://www.w3.org/1999/xlink"><path d="M56,224l1-2h-2l-1-1l2-1l-2-3l1-2H45v-4l3-4l-1-2v-3H31v7h1l2,5v2l-1,1v3l-1,2v1h5l2,1l5,1v-1l-2-1l1-1l3,2v2l3,1l1-1h2v1    h1l1-2l4,2h1L56,224z M54.936,224.35l-1.383-0.691L52.882,225h-3.296l-0.856,0.856L47,225.279v-1.814l-4.127-2.751l-2.535,2.534    l-1.01-0.202L37.236,222h-4.118L34,220.236v-2.822l1-1v-2.606L32.677,208H32v-5h14v2.236l0.829,1.659L44,210.667V216h9.382    l-0.536,1.072l1.693,2.541l-2.228,1.114L54.586,223h0.796l-0.599,1.197L54.936,224.35z"></path></g></g></svg>