<svg xmlns="http://www.w3.org/2000/svg" xmlns:xlink="http://www.w3.org/1999/xlink" version="1.1" x="0px" y="0px" viewBox="0 0 30 30" xml:space="preserve"><g transform="translate(-90 -200)"><g xmlns="http://www.w3.org/2000/svg" xmlns:xlink="http://www.w3.org/1999/xlink"><g><path d="M115,216h-2v-3l-1-1v-9l-3-2h-1l-2,1h-1v-2h-1l-5,5v2l-1,2v2l-3,4h-1v14l2,1v-1l3-2v-2h3v-1h2l1-2h2l9-3v-1L115,216z      M115,218.279L106.838,221h-2.456l-1,2H101v1h-3v2.465l-2.929,1.952L95,228.382V216h0.5l3.5-4.667v-2.098l1-2v-1.822l4-4V203     h2.236l2-1h0.461l2.303,1.535v8.879l1,1V217h2.382l0.618,1.236V218.279z"></path></g><rect x="105" y="223" width="1" height="1"></rect><rect x="108" y="222" width="1" height="1"></rect></g></g></svg>