<svg xmlns="http://www.w3.org/2000/svg" xmlns:xlink="http://www.w3.org/1999/xlink" version="1.1" x="0px" y="0px" viewBox="0 0 48 30" xml:space="preserve"><g transform="translate(-150 -200)"><g xmlns="http://www.w3.org/2000/svg" xmlns:xlink="http://www.w3.org/1999/xlink"><g><path d="M191,219l-1-16h-39v6h1l3-3h2v-2h2l1,2h1l1-2h6l1,4h2l1,3l2,1l3,1v2l-3,4v1h3v1l6,4v-3l-1-2v-11l3-3h2v1l-2,2v2h-1v2h2v1     h-2v1h2v1h-1v1h1l-2,3l1,2h4v5l2-1h3l3-5v-2H191z M156,205h-1.414L152,207.586V204h4V205z M196,220.723L193.434,225h-2.669     L190,225.382V221h-4.382l-0.464-0.928l2.715-4.072H187v-4h-1v-2.586l2-2V205h-3.414L181,208.586v11.65l1,2v0.896l-4-2.667V219     h-2.75l2.75-3.667v-3.054l-3.616-1.206l-1.566-0.783L171.721,207h-1.94l-0.75-3h20.03l1,16H196V220.723z"></path></g><rect x="187" y="223" width="1" height="1"></rect><rect x="187" y="225" width="1" height="1"></rect></g></g></svg>