<svg xmlns="http://www.w3.org/2000/svg" xmlns:xlink="http://www.w3.org/1999/xlink" version="1.1" x="0px" y="0px" viewBox="0 0 48 30" xml:space="preserve"><g transform="translate(-228 -200)"><g xmlns="http://www.w3.org/2000/svg" xmlns:xlink="http://www.w3.org/1999/xlink"><path d="M273,216h-2v1h0.667l1.333,2v2l-3,1l-3-1v-3l-3-5l-3-2l2-3l4-2v-1h-3v-3h-2l-4,2v1l-26-1l-3,12l1,1h7v1h1v-1h19v2l1,3h2v4    h1l4-4h1v3h2l1-1l6-1v-4L273,216z M266,221h-1.414L261,224.586V221h-2.279L258,218.838V216h-27.586l-0.307-0.307l2.666-10.663    L259,206.039v-1.421l3.236-1.618H263v3h1.764l-2.449,1.224l-2.702,4.053l3.645,2.43l2.742,4.569V221z"></path></g></g></svg>