<svg xmlns="http://www.w3.org/2000/svg" xmlns:xlink="http://www.w3.org/1999/xlink" version="1.1" x="0px" y="0px" viewBox="0 0 30 30" xml:space="preserve"><g transform="translate(-306 -200)"><g xmlns="http://www.w3.org/2000/svg" xmlns:xlink="http://www.w3.org/1999/xlink"><path d="M321,208h3l2,1h5v-1l-4-2h-1v-1h-5l-1,1h-3l-1-2h-3l2-2h-1l-3,2h-2l-3,2l2,2h3l1,1h2l1,2v2h1l2-3h2L321,208z M317.465,209    L316,211.197v-0.433L314.618,208h-2.204l-1-1h-3l-0.844-0.845l1.733-1.155h6.079l1,2h4h0.032l1-1H325v1h1.764l2,1h-2.527l-2-1    h-3.822h-0.032l-1,2H317.465z"></path><path d="M334,218h-2l-1,1h-1v-2l2-3v-1l-1-2h-1l-2-1h-2v2h-2l-3,3l-1,4l1,2v5l-2,2h13v-1l3-5L334,218z M331,226.723V227h-9.586    l0.586-0.586v-5.65l-0.94-1.88l0.844-3.373l2.511-2.511H327v-2h0.764l2,1h0.618l0.618,1.236v0.461l-2,3V220h2.414l1-1h0.805    l0.711,2.841L331,226.723z"></path></g></g></svg>