<svg xmlns="http://www.w3.org/2000/svg" xmlns:xlink="http://www.w3.org/1999/xlink" version="1.1" x="0px" y="0px" viewBox="0 0 30 30" xml:space="preserve"><g transform="translate(-366 -200)"><g xmlns="http://www.w3.org/2000/svg" xmlns:xlink="http://www.w3.org/1999/xlink"><path d="M387,207l-4-2h-4l-2-1v-3h-2v2h-6v4l1,2v9h-1v2h1v9h18v-2l-2-1l-1-1l-2-1v-4l-1-1v-1l2-1v-3l5-4l4-2v-1H387z     M388.458,209.153L383,213.52v2.862l-2,1v2.032l1,1v4.204l2.407,1.204l1,1l1.593,0.796V228h-16v-19.236l-1-2V204h6v0.618    l2.764,1.382h4l4,2h4L388.458,209.153z"></path></g></g></svg>