<svg xmlns="http://www.w3.org/2000/svg" xmlns:xlink="http://www.w3.org/1999/xlink" version="1.1" x="0px" y="0px" viewBox="0 0 30 30" xml:space="preserve"><g transform="translate(-486 -200)"><g xmlns="http://www.w3.org/2000/svg" xmlns:xlink="http://www.w3.org/1999/xlink"><path d="M513,223v-3l-3-3v-4h-2v-2l-3-3v-2l-1-2h-17v2l3,2v2l2,1v14h19v1l-1,2h2l1-3h2v-1L513,223z M493,224v-13.618l-2-1v-1.917    l-3-2V205h15.382l0.618,1.236v2.178l3,3V214h2v3.414l3,3v3.204l0.764,0.382H493z"></path></g></g></svg>