<svg xmlns="http://www.w3.org/2000/svg" xmlns:xlink="http://www.w3.org/1999/xlink" version="1.1" x="0px" y="0px" viewBox="0 0 30 30" xml:space="preserve"><g transform="translate(-228 -260)"><g xmlns="http://www.w3.org/2000/svg" xmlns:xlink="http://www.w3.org/1999/xlink"><path d="M248,269h1l2-4l-8-5l-2,3l-2,2l1,1l-1,1v3h1v2h1l2,3l-4,3v1h-2l-2,2v2l4,4h3l-2,3h1l1-1l2-3l3-2l2-4l1-8l-3-1L248,269z     M248.906,272.689l-0.877,7.017l-1.805,3.609l-2.945,1.964l-0.48,0.721h-3.384L236,282.586v-1.172l1.414-1.414H240v-1.5    l4.357-3.268L241.535,271H241v-2h-1v-1.586l1.414-1.414l-1-1l1.363-1.363l1.516-2.274l6.405,4.004L248.382,268h-1l-1.792,3.584    L248.906,272.689z"></path></g></g></svg>