<svg xmlns="http://www.w3.org/2000/svg" xmlns:xlink="http://www.w3.org/1999/xlink" version="1.1" x="0px" y="0px" viewBox="0 0 30 30" xml:space="preserve"><g transform="translate(-168 -260)"><g xmlns="http://www.w3.org/2000/svg" xmlns:xlink="http://www.w3.org/1999/xlink"><path d="M190,285l-1-3v-20v-1h-1v1h-1v-1h-1v1h-1v1l-1,1v5l-1,2h-3v3l-3,6v2l-1,1v2l-1,2l1,2h11v-1h3l1-3H190z M189.279,287H186v1    h-9.382l-0.5-1l0.882-1.764v-1.822l1-1v-2.178l3-6V272h2.618l1.382-2.764v-4.822l1-1V263h2v19.162l1.279,3.838h0.333L189.279,287z    "></path></g></g></svg>