<svg xmlns="http://www.w3.org/2000/svg" xmlns:xlink="http://www.w3.org/1999/xlink" version="1.1" x="0px" y="0px" viewBox="0 0 38 30" xml:space="preserve"><g transform="translate(-348 -260)"><g xmlns="http://www.w3.org/2000/svg" xmlns:xlink="http://www.w3.org/1999/xlink"><path d="M382,285h-5v-7l1-2v-5l-1-1v-8h-8l-5,5v1h1v1h-1v2l-2,1h-11v2l2,1l-4,3v2h20l1,2l6.5,4.5L375,288h4l6-3v-1L382,285z     M376,277.764v7.174l-5.22-3.614L369.618,279H350v-0.5l4.895-3.671L352,273.382V273h10.236l2.764-1.382V270h1v-3h-0.586l4-4H376    v7.414l1,1v4.35L376,277.764z M378.764,287h-1.35l0.641-0.641L377.534,286h3.229L378.764,287z"></path></g></g></svg>