<svg xmlns="http://www.w3.org/2000/svg" xmlns:xlink="http://www.w3.org/1999/xlink" version="1.1" x="0px" y="0px" viewBox="0 0 48 30" xml:space="preserve"><g transform="translate(-416 -260)"><g xmlns="http://www.w3.org/2000/svg" xmlns:xlink="http://www.w3.org/1999/xlink"><path d="M461,269h2l-1-2h-30l-3,3l-5,1l-2,3h-3l-1,1h-1v2h7l2-1h8l2,3h7l5,6h4l2-4l3-2h3l1-2h-1v-2h2l1-2v-3h-2V269z M462,271    v1.764L461.382,274H459v4h-2.303l-3.473,2.315L451.382,284h-2.913l-5-6h-6.934l-2-3h-8.771l-2,1h-5.35l1-1h3.121l2.067-3.101    l4.891-0.979l2.921-2.921H460v3H462z"></path></g></g></svg>