<svg xmlns="http://www.w3.org/2000/svg" xmlns:xlink="http://www.w3.org/1999/xlink" version="1.1" x="0px" y="0px" viewBox="0 0 30 30" xml:space="preserve"><g transform="translate(-567 -260)"><g xmlns="http://www.w3.org/2000/svg" xmlns:xlink="http://www.w3.org/1999/xlink"><path d="M590,263l-2,2h-7l-4-2h-8v20v1h2l4,4h3l2-2h1v2l1,1h2l1-1v-3h3v-3h1l4-2l2-6v-13L590,263z M594,273.838l-1.817,5.453    L588.764,281H587v3h-3v3.586L583.586,288h-1.172L582,287.586V285h-2.414l-2,2h-2.172l-4-4H570v-19h6.764l4,2h7.65l2.147-2.147    l3.438-1.376V273.838z"></path></g></g></svg>