<svg xmlns="http://www.w3.org/2000/svg" xmlns:xlink="http://www.w3.org/1999/xlink" version="1.1" x="0px" y="0px" viewBox="0 0 38 30" xml:space="preserve"><g transform="translate(-108 -320)"><g xmlns="http://www.w3.org/2000/svg" xmlns:xlink="http://www.w3.org/1999/xlink"><path d="M142,332l3-7l-2-3h-9l-1,1l-9,2h-2l-1,1h-3v-3l-1-2h-4v5l-2,13l-1,1l-1,3l1,1v4l13,1l20-1v-14h-1V332z M142,347.049    l-18.987,0.949L111,347.074v-3.488l-0.856-0.856l0.73-2.189l1.064-1.064L114,326.076V322h2.382l0.618,1.236V327h4.414l1-1h1.696    l9.391-2.087l0.913-0.913h8.051l1.403,2.104L141,331.795V335h1V347.049z"></path></g></g></svg>