<svg xmlns="http://www.w3.org/2000/svg" xmlns:xlink="http://www.w3.org/1999/xlink" version="1.1" x="0px" y="0px" viewBox="0 0 30 30" xml:space="preserve"><g transform="translate(-254 -320)"><g xmlns="http://www.w3.org/2000/svg" xmlns:xlink="http://www.w3.org/1999/xlink"><g><path d="M273,326h-1v-5l-11,1v19l-2,1v2l-1,1v1l11-3l2-3v-2l-1-2h1v-3h1v-1h1v-1h1v2h2v-3h-3V326z M272,331h-1v1h-1v3h-1.618     l1.618,3.236v1.461l-1.625,2.437l-8.381,2.286l0.005-0.006v-1.796l2-1v-18.705l9-0.818V327h1V331z"></path><rect x="272" y="336" width="1" height="4"></rect><rect x="272" y="334" width="2" height="1"></rect><polygon points="275,337 274,337 274,340 275,340 276,340 276,334 275,334    "></polygon><rect x="277" y="333" width="2" height="7"></rect></g><rect x="266" y="348" width="2" height="2"></rect></g></g></svg>