<svg xmlns="http://www.w3.org/2000/svg" xmlns:xlink="http://www.w3.org/1999/xlink" version="1.1" x="0px" y="0px" viewBox="0 0 30 30" xml:space="preserve"><g transform="translate(-314 -320)"><g xmlns="http://www.w3.org/2000/svg" xmlns:xlink="http://www.w3.org/1999/xlink"><path d="M337,327h-7v-2l-2-1h-8l-3,1l-3,2l2,2h2v2l2,4h1l3,6h2v3l2,1v3h2v-2l3-2h2v-1h1l4-3v-2h1l3-4L337,327z M340.5,337H339v2.5    l-3.333,2.5H334v1h-1.303L329,345.465v-1.083l-2-1V340h-2.382l-3-6h-1L319,330.764V328h-2.586l-0.844-0.845l1.874-1.249    l2.719-0.906h7.602l1.236,0.618V328h7.586l6.094,6.094L340.5,337z"></path></g></g></svg>