<svg xmlns="http://www.w3.org/2000/svg" xmlns:xlink="http://www.w3.org/1999/xlink" version="1.1" x="0px" y="0px" viewBox="0 0 30 30" xml:space="preserve"><g transform="translate(-530 -320)"><g xmlns="http://www.w3.org/2000/svg" xmlns:xlink="http://www.w3.org/1999/xlink"><path d="M557,333v-5l-3-1h-8l-2-1v-5h-7v11h-7l1,3l2,1l1,3l2,2h1l2-2h3l4,6l1,3l4,1v-4l1-2l4-3l1-2h2v-4L557,333z M558,337h-1.618    l-1.171,2.342l-4,3L550,344.764v2.955l-2.225-0.556l-0.869-2.606L542.535,338h-3.949l-2,2h-0.172l-1.54-1.54l-1.057-3.169l-2-1    l-0.43-1.291H538v-11h5v4.618l2.764,1.382h8.074l2.162,0.721v4.897l2,1V337z"></path></g></g></svg>