<svg xmlns="http://www.w3.org/2000/svg" xmlns:xlink="http://www.w3.org/1999/xlink" version="1.1" x="0px" y="0px" viewBox="0 0 30 30" xml:space="preserve"><g transform="translate(-90 -380)"><g xmlns="http://www.w3.org/2000/svg" xmlns:xlink="http://www.w3.org/1999/xlink"><g><path d="M114,380H99v3l-1,3l-1,4l-1,2v7h1v11h7v-2l1-1l1-9l3-5v-4h2l3-2v-3l-1-1l1-1V380z M113,381.586L111.586,383l1.414,1.414     v2.051L110.697,388H108v4.723l-2.97,4.95l-0.985,8.868L103,407.586V409h-5v-11h-1v-5.764l0.943-1.888l1.027-4.106l1.03-3.08V381     h13V381.586z"></path></g><rect x="97" y="381" width="1" height="2"></rect><rect x="96" y="384" width="1" height="2"></rect></g></g></svg>