<svg xmlns="http://www.w3.org/2000/svg" xmlns:xlink="http://www.w3.org/1999/xlink" version="1.1" x="0px" y="0px" viewBox="0 0 48 30" xml:space="preserve"><g transform="translate(-150 -380)"><g xmlns="http://www.w3.org/2000/svg" xmlns:xlink="http://www.w3.org/1999/xlink"><g><path d="M190,403v-2l2-1v-6h-3v-2h-2v-1l2-2l-3-4l-5-1l-5,6h-2l-4,6v2l-7,2l-4-1l-4,2l-1,2l-4,2h44v-2H190z M189,404h-34.764     l0.509-0.255l1-2l3.371-1.686l3.901,0.976l7.983-2.281v-2.451l3.535-5.303h1.933l4.919-5.902l4.042,0.808l2.25,3.001l-1.68,1.68     V393h2v2h3v4.382l-2,1V404z"></path></g><polygon points="195,399 195,394 198,394 197,397   "></polygon></g></g></svg>