<svg xmlns="http://www.w3.org/2000/svg" xmlns:xlink="http://www.w3.org/1999/xlink" version="1.1" x="0px" y="0px" viewBox="0 0 38 30" xml:space="preserve"><g transform="translate(-228 -380)"><g xmlns="http://www.w3.org/2000/svg" xmlns:xlink="http://www.w3.org/1999/xlink"><g><path d="M264,402v-19h-26v2l2,3v5l-1,3h-3v-3l1-1v-3h-4l-3-2h-1v3l2,7v5l5,1l2,1v3h3v-1h8l5-2h11v-2H264z M263,403h-9.192l-5,2     H240v1h-1v-2.618l-2.672-1.336L232,401.181v-4.32l-2-7v-1.658l2.697,1.798H236v1.586l-1,1V397h4.721l1.279-3.838v-5.465l-2-3V384     h24V403h1H263z"></path></g><rect x="237" y="394" width="1" height="1"></rect><rect x="238" y="389" width="1" height="1"></rect><rect x="238" y="391" width="1" height="2"></rect><rect x="236" y="386" width="2" height="2"></rect></g></g></svg>