<svg xmlns="http://www.w3.org/2000/svg" xmlns:xlink="http://www.w3.org/1999/xlink" version="1.1" x="0px" y="0px" viewBox="0 0 38 30" xml:space="preserve"><g transform="translate(-296 -380)"><g xmlns="http://www.w3.org/2000/svg" xmlns:xlink="http://www.w3.org/1999/xlink"><path d="M329,388h-1l-1,1h-3l-2,1l-1,2h-1v-4h-7v-8h-1v4l-1,4l-3,3h-3v3h-3v3l-1,1v1h-2v3l6,7h2l8-3v-1l4-6v-1h1l1,1l1-1v-2h2l3-3    l1-3h1l1.5,2.5l1.5-1.5v-2L329,388z M326.126,392.46l-2.54,2.54H321v2.586L320.414,397H318v1.697l-4,6v0.609L306.819,408h-1.359    l-5.46-6.37V400h2v-1.586l1-1V395h3v-3h2.414l3-3H312h7v4h2.618l1.127-2.255l1.491-0.745h2.71L326.126,392.46z"></path></g></g></svg>