<svg xmlns="http://www.w3.org/2000/svg" xmlns:xlink="http://www.w3.org/1999/xlink" version="1.1" x="0px" y="0px" viewBox="0 0 30 30" xml:space="preserve"><g transform="translate(-364 -380)"><g xmlns="http://www.w3.org/2000/svg" xmlns:xlink="http://www.w3.org/1999/xlink"><path d="M391,392l-3,4h-1l2-3l-1-4l-1-1l-9-3l-1-1l-2-1v-2l-7,2v4l-2,1v7l2,1l5,5l1,6l2,1v1h12v-6l1-4l3-7H391z M387,402.877V408    h-10v-0.618l-2.098-1.049l-0.969-5.813l-5.341-5.342L367,394.382v-5.764l2-1v-3.864l5-1.428v1.292l2.407,1.204l1.053,1.052l9,3    l0.637,0.638l0.826,3.302L385.132,397H387h1.5h0.269l-0.72,1.68L387,402.877z"></path></g></g></svg>